HIERARCHY
ROOT Hips
{
	OFFSET -0.001795 -0.223333 0.028219
	CHANNELS 6 Xposition Yposition Zposition Zrotation Yrotation Xrotation 
	JOINT LeftUpLeg
	{
		OFFSET 0.069520 -0.091406 -0.006815
		CHANNELS 3 Zrotation Yrotation Xrotation
		JOINT LeftLeg
		{
			OFFSET 0.034277 -0.375199 -0.004496
			CHANNELS 3 Zrotation Yrotation Xrotation
			JOINT LeftFoot
			{
				OFFSET -0.013596 -0.397961 -0.043693
				CHANNELS 3 Zrotation Yrotation Xrotation
				JOINT LeftToe
				{
					OFFSET 0.026358 -0.055791 0.119288
					CHANNELS 3 Zrotation Yrotation Xrotation
					End Site
					{
						OFFSET 0.000000 0.000000 0.000000
					}
				}
			}
		}
	}
	JOINT RightUpLeg
	{
		OFFSET -0.067670 -0.090522 -0.004320
		CHANNELS 3 Zrotation Yrotation Xrotation
		JOINT RightLeg
		{
			OFFSET -0.038290 -0.382569 -0.008850
			CHANNELS 3 Zrotation Yrotation Xrotation
			JOINT RightFoot
			{
				OFFSET 0.015774 -0.398415 -0.042312
				CHANNELS 3 Zrotation Yrotation Xrotation
				JOINT RightToe
				{
					OFFSET -0.025372 -0.048144 0.123348
					CHANNELS 3 Zrotation Yrotation Xrotation
					End Site
					{
						OFFSET 0.000000 0.000000 0.000000
					}
				}
			}
		}
	}
	JOINT Spine
	{
		OFFSET -0.002533 0.108963 -0.026696
		CHANNELS 3 Zrotation Yrotation Xrotation
		JOINT Spine1
		{
			OFFSET 0.005487 0.135180 0.001092
			CHANNELS 3 Zrotation Yrotation Xrotation
			JOINT Spine2
			{
				OFFSET 0.001457 0.052922 0.025425
				CHANNELS 3 Zrotation Yrotation Xrotation
				JOINT Neck
				{
					OFFSET -0.002778 0.213870 -0.042857
					CHANNELS 3 Zrotation Yrotation Xrotation
					JOINT Head
					{
						OFFSET 0.005152 0.064970 0.051349
						CHANNELS 3 Zrotation Yrotation Xrotation
						End Site
						{
							OFFSET 0.000000 0.000000 0.000000
						}
					}
				}
				JOINT LeftShoulder
				{
					OFFSET 0.078845 0.121749 -0.034090
					CHANNELS 3 Zrotation Yrotation Xrotation
					JOINT LeftArm
					{
						OFFSET 0.090977 0.030469 -0.008868
						CHANNELS 3 Zrotation Yrotation Xrotation
						JOINT LeftForeArm
						{
							OFFSET 0.259612 -0.012772 -0.027456
							CHANNELS 3 Zrotation Yrotation Xrotation
							JOINT LeftHand
							{
								OFFSET 0.249234 0.008986 -0.001171
								CHANNELS 3 Zrotation Yrotation Xrotation
								End Site
								{
									OFFSET 0.000000 0.000000 0.000000
								}
							}
						}
					}
				}
				JOINT RightShoulder
				{
					OFFSET -0.081759 0.118833 -0.038615
					CHANNELS 3 Zrotation Yrotation Xrotation
					JOINT RightArm
					{
						OFFSET -0.096012 0.032551 -0.009143
						CHANNELS 3 Zrotation Yrotation Xrotation
						JOINT RightForeArm
						{
							OFFSET -0.253742 -0.013329 -0.021401
							CHANNELS 3 Zrotation Yrotation Xrotation
							JOINT RightHand
							{
								OFFSET -0.255298 0.007772 -0.005559
								CHANNELS 3 Zrotation Yrotation Xrotation
								End Site
								{
									OFFSET 0.000000 0.000000 0.000000
								}
							}
						}
					}
				}
			}
		}
	}
}
MOTION
Frames: 13
Frame Time: 0.050000
0.000000 0.935300 0.000000 -1.056074 18.001327 17.391732 3.170214 -1.366436 -14.676839 -0.366264 -0.341816 7.314463 4.920771 1.461338 -13.481279 0.000000 0.000000 0.000000 0.491364 1.642187 -30.669557 0.307797 0.052614 9.594078 -35.553387 -42.765409 46.704960 0.000000 0.000000 0.000000 6.167002 -4.001039 24.767791 4.881696 -2.463838 0.875273 -7.135070 -4.003644 2.970061 12.931921 -3.641183 -26.061279 0.000000 0.000000 0.000000 -18.914164 -45.393881 23.686404 -16.677275 -43.085449 2.361020 27.625025 -17.293679 -3.348896 0.000000 0.000000 0.000000 18.266161 34.715155 20.391635 21.297883 45.029878 4.033172 -31.671499 27.718426 -5.720963 0.000000 0.000000 0.000000 
0.000945 0.935416 -0.000777 -2.086632 16.764616 18.308088 3.976783 -1.573639 -17.259439 -0.512816 -0.440384 9.410942 5.485325 3.672242 -13.368786 0.000000 0.000000 0.000000 1.468312 2.026073 -32.039335 0.236597 0.097059 9.424467 -34.120464 -41.996507 45.861992 0.000000 0.000000 0.000000 5.618682 -3.743885 24.497777 4.391602 -2.328507 1.748895 -6.462787 -3.549637 3.069893 15.871588 -5.096746 -26.131107 0.000000 0.000000 0.000000 -15.946654 -43.530252 21.548299 -17.538769 -45.224860 2.787510 27.287267 -14.769325 -2.772829 0.000000 0.000000 0.000000 18.647948 34.013324 20.123195 19.842925 46.359628 3.622823 -31.807061 29.099261 -6.012990 0.000000 0.000000 0.000000 
0.001747 0.934767 -0.002155 -2.885071 15.886824 18.384402 4.954718 -1.526028 -17.595142 -1.362472 -0.310756 9.684378 5.890920 4.974918 -13.655338 0.000000 0.000000 0.000000 2.632326 2.450334 -33.640013 -0.544061 0.295295 11.498928 -32.974897 -41.213453 45.506320 0.000000 0.000000 0.000000 6.048719 -3.933961 25.060810 3.571157 -1.916973 1.721432 -6.181342 -2.944587 2.642534 15.068323 -5.220612 -23.709228 0.000000 0.000000 0.000000 -17.359272 -44.216991 22.527160 -14.617428 -44.856146 1.801626 23.610278 -13.053597 -1.997495 0.000000 0.000000 0.000000 18.524816 33.156620 19.539942 16.082119 46.301988 2.309507 -31.244936 30.878773 -6.328998 0.000000 0.000000 0.000000 
0.002251 0.935526 -0.004050 -3.847104 14.236821 18.530202 5.178994 -1.559072 -18.674368 -0.960139 -0.454777 11.508041 6.562969 7.244683 -13.957091 0.000000 0.000000 0.000000 3.879276 2.990493 -34.575685 -0.975049 0.438625 12.138184 -31.384755 -40.374855 44.416532 0.000000 0.000000 0.000000 5.604601 -3.837187 25.893103 2.937804 -1.624105 2.019555 -5.683231 -2.847404 2.419328 15.734139 -5.306149 -25.080909 0.000000 0.000000 0.000000 -15.723279 -43.514929 21.737709 -14.510301 -45.754480 1.839354 22.773696 -10.624718 -1.511006 0.000000 0.000000 0.000000 16.398930 34.168696 19.150325 14.412977 48.239003 2.020405 -32.633207 29.484214 -6.358308 0.000000 0.000000 0.000000 
0.002523 0.935363 -0.006545 -4.084667 13.666469 18.680570 5.840288 -1.540888 -19.259762 -2.156745 -0.275817 12.439229 6.840525 8.052496 -14.438214 0.000000 0.000000 0.000000 3.958855 3.148386 -35.959287 -0.668793 0.399656 13.762040 -31.268429 -40.232776 44.728797 0.000000 0.000000 0.000000 5.035706 -3.761334 26.764452 3.495524 -1.854717 1.816368 -6.300604 -2.807114 1.989216 16.775375 -6.122030 -23.743064 0.000000 0.000000 0.000000 -16.339848 -44.109151 22.392101 -14.058662 -44.658826 1.636725 21.623268 -9.463906 -1.234067 0.000000 0.000000 0.000000 17.446472 34.475657 19.691658 11.671711 48.368046 0.991978 -33.779867 29.447306 -6.623034 0.000000 0.000000 0.000000 
0.002272 0.936072 -0.009217 -4.433952 13.259643 19.159207 6.214280 -1.580698 -20.290048 -2.583872 -0.227478 13.383942 7.103051 8.946471 -14.629482 0.000000 0.000000 0.000000 4.472081 3.409227 -37.249648 -0.838971 0.468629 14.772824 -30.609235 -39.832240 44.377067 0.000000 0.000000 0.000000 4.650907 -3.677866 27.154450 3.264156 -1.812281 2.508618 -5.954826 -2.894083 0.897580 17.489693 -6.540959 -23.320722 0.000000 0.000000 0.000000 -15.391251 -43.906347 22.076097 -14.307885 -44.983204 1.785863 20.829369 -8.671702 -1.057623 0.000000 0.000000 0.000000 17.920266 34.899525 20.037724 8.919640 48.706419 -0.007660 -34.165970 29.131265 -6.617888 0.000000 0.000000 0.000000 
0.001702 0.936079 -0.011863 -4.281465 13.223885 19.198975 6.222480 -1.648856 -21.159542 -3.161334 -0.127043 13.669476 7.270255 9.942411 -13.761233 0.000000 0.000000 0.000000 4.268879 3.381679 -37.766145 -0.920581 0.498028 15.522611 -29.820161 -39.255501 43.921043 0.000000 0.000000 0.000000 4.127954 -3.646017 28.083110 3.434142 -1.903503 2.609120 -5.960823 -3.106131 0.663322 17.480770 -6.534312 -23.337424 0.000000 0.000000 0.000000 -14.772294 -43.783300 21.860852 -14.338370 -44.740934 1.775749 21.833307 -8.302145 -1.066570 0.000000 0.000000 0.000000 17.598633 35.507473 20.245112 6.491123 50.192089 -0.907747 -34.675110 26.367262 -5.966025 0.000000 0.000000 0.000000 
0.000852 0.936412 -0.014538 -4.382845 13.400661 19.038999 6.728116 -1.667111 -21.924237 -4.059212 0.025238 14.189800 7.436632 10.761262 -13.102982 0.000000 0.000000 0.000000 4.520414 3.435909 -37.844651 -1.341940 0.606869 15.913309 -28.785277 -38.491261 43.232348 0.000000 0.000000 0.000000 4.116952 -3.823121 29.108879 3.495277 -1.973407 2.964509 -6.190942 -2.589018 -0.204210 18.860037 -7.507144 -21.904169 0.000000 0.000000 0.000000 -15.417417 -44.173276 22.188107 -13.201583 -43.980769 1.394881 22.427447 -9.216932 -1.245782 0.000000 0.000000 0.000000 18.309971 35.798036 20.910069 3.138734 50.629708 -2.232712 -34.268005 24.167965 -5.271222 0.000000 0.000000 0.000000 
-0.000241 0.936648 -0.017203 -4.083727 13.503862 19.226388 6.759019 -1.740413 -22.770796 -4.741922 0.160206 14.041358 7.540168 11.594652 -11.934888 0.000000 0.000000 0.000000 4.590515 3.448646 -38.124275 -1.877074 0.745035 15.992175 -28.615282 -38.424979 42.899143 0.000000 0.000000 0.000000 3.723388 -3.818829 29.877147 3.632100 -2.048505 3.028520 -6.610863 -1.848022 -0.421494 20.000209 -7.975730 -22.056738 0.000000 0.000000 0.000000 -14.404996 -44.733710 21.922873 -11.729150 -43.858487 0.902128 23.847902 -10.154957 -1.511368 0.000000 0.000000 0.000000 17.741857 36.035843 21.182403 -0.662962 51.311957 -3.786882 -32.682696 20.625794 -4.085066 0.000000 0.000000 0.000000 
-0.001398 0.936888 -0.019557 -4.056717 13.865739 19.180717 6.996981 -1.787063 -23.436588 -5.108311 0.215072 14.205998 7.563280 11.950555 -11.165182 0.000000 0.000000 0.000000 4.531948 3.367719 -37.817537 -1.924536 0.737198 15.485936 -28.118416 -38.058887 42.404652 0.000000 0.000000 0.000000 3.842419 -4.069494 30.894900 3.498769 -1.902602 2.276336 -6.973866 -1.309378 -0.023912 21.547638 -8.693076 -22.268910 0.000000 0.000000 0.000000 -13.314693 -45.098788 21.558373 -9.707615 -44.211811 0.214773 25.263739 -10.919377 -1.767969 0.000000 0.000000 0.000000 17.313872 36.103812 21.336347 -4.211187 51.912610 -5.301948 -30.570681 17.954628 -3.168341 0.000000 0.000000 0.000000 
-0.002519 0.936991 -0.021342 -3.767099 14.150263 19.419415 6.828329 -1.876154 -24.042676 -5.225328 0.238911 13.758123 7.569531 12.370140 -10.099294 0.000000 0.000000 0.000000 4.405258 3.276066 -37.555164 -1.848461 0.693682 14.522214 -28.845699 -38.800873 42.181344 0.000000 0.000000 0.000000 3.776093 -4.144813 31.287652 3.550010 -1.977374 2.682522 -7.003167 -0.937333 -0.616866 22.260560 -9.148615 -21.782897 0.000000 0.000000 0.000000 -13.005028 -45.489171 21.587635 -7.164077 -44.228419 -0.610045 26.282638 -11.264765 -1.915228 0.000000 0.000000 0.000000 17.152913 36.517964 21.707900 -6.866455 51.945455 -6.374093 -28.802346 15.617838 -2.462096 0.000000 0.000000 0.000000 
-0.003571 0.936925 -0.022478 -3.867579 14.217876 19.463106 6.998964 -1.887723 -24.367477 -5.493830 0.296956 13.399432 7.804924 13.253503 -9.366938 0.000000 0.000000 0.000000 4.761729 3.340004 -37.003345 -1.904411 0.685432 13.365640 -29.263947 -39.398386 41.622514 0.000000 0.000000 0.000000 3.831981 -4.239496 31.656140 3.572008 -2.025101 3.007078 -6.948813 -0.568800 -1.015710 22.900173 -9.927803 -20.328084 0.000000 0.000000 0.000000 -12.211093 -45.929742 21.494280 -4.273133 -43.996179 -1.560784 26.900800 -11.065677 -1.925799 0.000000 0.000000 0.000000 17.407239 37.070677 22.279684 -9.417322 51.559703 -7.359035 -27.332881 14.845418 -2.177738 0.000000 0.000000 0.000000 
-0.004552 0.936899 -0.023126 -3.757183 14.124361 19.549945 7.185443 -1.870518 -24.470200 -5.933543 0.389404 12.993909 7.839523 13.564946 -8.851341 0.000000 0.000000 0.000000 4.702694 3.323116 -36.795171 -1.774731 0.644800 12.755672 -29.520177 -39.732393 41.423735 0.000000 0.000000 0.000000 3.652409 -4.241261 32.097982 3.720952 -2.094226 3.007451 -6.696727 -0.038839 -1.170204 23.778185 -10.747905 -19.337686 0.000000 0.000000 0.000000 -11.459672 -46.512437 21.486023 -2.031548 -43.746795 -2.306163 27.231419 -10.400197 -1.818924 0.000000 0.000000 0.000000 17.388710 37.354140 22.588876 -10.977837 51.012529 -7.889517 -26.186317 15.232164 -2.154863 0.000000 0.000000 0.000000 
